<?xml version="1.0" encoding="UTF-8" standalone="no"?>
<!-- Generator: Adobe Illustrator 18.0.0, SVG Export Plug-In . SVG Version: 6.00 Build 0)  -->

<svg
   xmlns:dc="http://purl.org/dc/elements/1.1/"
   xmlns:cc="http://creativecommons.org/ns#"
   xmlns:rdf="http://www.w3.org/1999/02/22-rdf-syntax-ns#"
   xmlns:svg="http://www.w3.org/2000/svg"
   xmlns="http://www.w3.org/2000/svg"
   xmlns:sodipodi="http://sodipodi.sourceforge.net/DTD/sodipodi-0.dtd"
   xmlns:inkscape="http://www.inkscape.org/namespaces/inkscape"
   version="1.1"
   id="图层_1"
   x="0px"
   y="0px"
   viewBox="0 0 43.251461 16.0065"
   enable-background="new 0 0 46 20"
   xml:space="preserve"
   sodipodi:docname="attention.svg"
   width="43.251461"
   height="16.0065"
   inkscape:version="0.92.1 r15371"><metadata
     id="metadata17"><rdf:RDF><cc:Work
         rdf:about=""><dc:format>image/svg+xml</dc:format><dc:type
           rdf:resource="http://purl.org/dc/dcmitype/StillImage" /><dc:title></dc:title></cc:Work></rdf:RDF></metadata><defs
     id="defs15" /><sodipodi:namedview
     pagecolor="#ffffff"
     bordercolor="#666666"
     borderopacity="1"
     objecttolerance="10"
     gridtolerance="10"
     guidetolerance="10"
     inkscape:pageopacity="0"
     inkscape:pageshadow="2"
     inkscape:window-width="836"
     inkscape:window-height="480"
     id="namedview13"
     showgrid="false"
     fit-margin-top="0"
     fit-margin-left="0"
     fit-margin-right="0"
     fit-margin-bottom="0"
     inkscape:zoom="6.9782609"
     inkscape:cx="22.25546"
     inkscape:cy="8"
     inkscape:window-x="0"
     inkscape:window-y="0"
     inkscape:window-maximized="0"
     inkscape:current-layer="图层_1" /><g
     id="g10"
     transform="translate(-0.74454039,-1.9934989)"><g
       id="g6"><path
         d="m 23.02,14.919 c -0.422,0.859 -0.711,1.461 -0.867,1.805 -0.313,-0.313 -0.656,-0.578 -1.031,-0.797 0.344,-0.313 0.734,-0.852 1.172,-1.617 0.438,-0.765 0.828,-1.508 1.172,-2.227 0.219,0.281 0.453,0.516 0.703,0.703 -0.345,0.563 -0.728,1.274 -1.149,2.133 z m 0.773,-4.477 c -0.188,0.219 -0.391,0.5 -0.609,0.844 -0.594,-0.531 -1.219,-0.984 -1.875,-1.359 0.188,-0.188 0.375,-0.438 0.563,-0.75 0.718,0.469 1.358,0.89 1.921,1.265 z m 0.375,-2.906 c -0.281,0.219 -0.5,0.453 -0.656,0.703 -0.531,-0.625 -1.109,-1.125 -1.734,-1.5 0.219,-0.219 0.438,-0.453 0.656,-0.703 0.75,0.563 1.328,1.063 1.734,1.5 z m 5.109,0.328 c 0.594,0 1.281,-0.016 2.063,-0.047 V 8.708 C 30.496,8.677 29.824,8.661 29.324,8.661 h -0.938 v 2.578 h 0.891 c 0.531,0 1.156,-0.016 1.875,-0.047 v 0.891 c -0.688,-0.031 -1.313,-0.047 -1.875,-0.047 h -0.891 v 3.422 h 1.172 c 0.75,0 1.531,-0.016 2.344,-0.047 v 0.891 c -0.813,-0.031 -1.578,-0.047 -2.297,-0.047 h -3.422 c -0.813,0 -1.484,0.016 -2.016,0.047 v -0.891 c 0.5,0.031 1.188,0.047 2.063,0.047 h 1.219 v -3.422 h -0.75 c -0.594,0 -1.156,0.016 -1.688,0.047 v -0.891 c 0.531,0.031 1.109,0.047 1.734,0.047 h 0.703 V 8.661 h -0.891 c -0.625,0 -1.25,0.016 -1.875,0.047 V 7.817 c 0.625,0.031 1.266,0.047 1.922,0.047 z m -2.062,-2.25 c 0.406,0.344 0.906,0.844 1.5,1.5 -0.25,0.188 -0.5,0.391 -0.75,0.609 -0.531,-0.656 -1,-1.172 -1.406,-1.547 0.218,-0.155 0.437,-0.343 0.656,-0.562 z"
         id="path2"
         inkscape:connector-curvature="0"
         style="fill:#727171" /><path
         d="m 34.012,16.489 c -0.375,-0.156 -0.688,-0.266 -0.938,-0.328 0.375,-0.5 0.688,-1.188 0.938,-2.063 0.281,0.125 0.578,0.219 0.891,0.281 -0.282,0.595 -0.579,1.298 -0.891,2.11 z m 1.453,-9 c -0.563,0 -1.156,0.016 -1.781,0.047 V 6.739 c 0.656,0.031 1.25,0.047 1.781,0.047 h 2.813 C 38.247,6.536 38.137,6.208 37.95,5.802 c 0.344,-0.031 0.703,-0.094 1.078,-0.188 0.125,0.563 0.219,0.953 0.281,1.172 h 2.156 c 0.625,0 1.172,-0.016 1.641,-0.047 V 7.536 C 42.575,7.505 42.028,7.489 41.465,7.489 h -4.688 c 0.219,0.313 0.406,0.609 0.563,0.891 l -0.656,0.281 h 2.953 c 0.125,-0.156 0.266,-0.516 0.422,-1.078 0.375,0.094 0.719,0.188 1.031,0.281 -0.219,0.281 -0.391,0.547 -0.516,0.797 h 1.406 c 0.688,0 1.328,-0.016 1.922,-0.047 V 9.411 C 43.308,9.38 42.668,9.364 41.98,9.364 h -7.031 c -0.656,0 -1.266,0.016 -1.828,0.047 V 8.614 c 0.594,0.031 1.203,0.047 1.828,0.047 h 1.547 C 36.402,8.411 36.246,8.145 36.027,7.864 36.215,7.77 36.433,7.645 36.683,7.489 Z m 6.703,4.266 c 0,0.531 0.016,1.109 0.047,1.734 h -7.453 c 0.031,-0.625 0.047,-1.219 0.047,-1.781 0,-0.562 -0.016,-1.125 -0.047,-1.688 h 7.453 c -0.031,0.594 -0.047,1.172 -0.047,1.735 z M 41.23,11.427 v -0.75 h -5.484 v 0.75 z m 0,1.359 V 12.13 h -5.484 v 0.656 z m -4.406,2.156 c 0,0.188 0.008,0.359 0.023,0.516 0.015,0.157 0.164,0.234 0.445,0.234 h 2.766 c 0.188,-0.063 0.344,-0.422 0.469,-1.078 0.25,0.219 0.594,0.391 1.031,0.516 -0.219,0.594 -0.406,0.953 -0.563,1.078 -0.157,0.125 -0.422,0.188 -0.797,0.188 h -3.422 c -0.531,-0.031 -0.813,-0.164 -0.844,-0.398 -0.031,-0.234 -0.047,-0.508 -0.047,-0.82 0,-0.312 -0.031,-0.672 -0.094,-1.078 h 1.078 c -0.029,0.342 -0.045,0.624 -0.045,0.842 z m 2.766,-0.14 c -0.281,0.188 -0.563,0.359 -0.844,0.516 -0.094,-0.281 -0.359,-0.672 -0.797,-1.172 0.188,-0.156 0.453,-0.328 0.797,-0.516 0.344,0.469 0.625,0.859 0.844,1.172 z m 4.406,0.797 c -0.281,0.219 -0.531,0.406 -0.75,0.563 -0.219,-0.344 -0.672,-0.938 -1.359,-1.781 0.188,-0.156 0.438,-0.328 0.75,-0.516 0.593,0.781 1.047,1.359 1.359,1.734 z"
         id="path4"
         inkscape:connector-curvature="0"
         style="fill:#727171" /></g><path
       d="M 19.108,16.491 10.825,2.484 C 10.437,1.829 9.487,1.83 9.101,2.487 L 0.884,16.494 C 0.492,17.161 0.973,18 1.746,18 h 16.501 c 0.774,0 1.255,-0.842 0.861,-1.509 z M 11,15.008 C 11,15.556 10.556,16 10.008,16 H 9.992 C 9.444,16 9,15.556 9,15.008 V 14.992 C 9,14.444 9.444,14 9.992,14 h 0.016 C 10.556,14 11,14.444 11,14.992 Z m 0,-2.932 C 11,12.586 10.584,13 10.072,13 H 9.928 C 9.416,13 9,12.586 9,12.076 V 7.949 C 9,7.438 9.416,7 9.928,7 h 0.144 C 10.584,7 11,7.438 11,7.949 Z"
       id="path8"
       inkscape:connector-curvature="0"
       style="fill:#727171" /></g></svg>