<?xml version="1.0" encoding="UTF-8" standalone="no"?>
<svg width="24px" height="24px" viewBox="0 0 24 24" version="1.1" xmlns="http://www.w3.org/2000/svg" xmlns:xlink="http://www.w3.org/1999/xlink">
    <!-- Generator: Sketch 3.8.3 (29802) - http://www.bohemiancoding.com/sketch -->
    <title>选项设置-24px</title>
    <desc>Created with Sketch.</desc>
    <defs></defs>
    <g id="Page-1" stroke="none" stroke-width="1" fill="none" fill-rule="evenodd">
        <g id="选项设置-24px" fill="#B5B5B6">
            <g id="用户手册-深度商店24px-08" transform="translate(3.000000, 3.000000)">
                <g id="Group">
                    <path d="M18,1 C18,0.448 17.552,0 17,0 L1,0 C0.448,0 0,0.448 0,1 L0,18 C0,18.552 0.448,19 1,19 L17,19 C17.552,19 18,18.552 18,18 L18,1 L18,1 Z M5,16 L2,16 L2,13 L5,13 L5,16 L5,16 Z M5,11 L2,11 L2,8 L5,8 L5,11 L5,11 Z M5,6 L2,6 L2,3 L5,3 L5,6 L5,6 Z M16,15 L7,15 L7,14 L16,14 L16,15 L16,15 Z M16,10 L7,10 L7,9 L16,9 L16,10 L16,10 Z M16,5 L7,5 L7,4 L16,4 L16,5 L16,5 Z" id="Shape"></path>
                    <path d="M3.069,4.876 L2.451,4.259 C2.411,4.219 2.345,4.219 2.304,4.259 L2.146,4.418 C2.106,4.458 2.106,4.524 2.146,4.565 L2.811,5.23 L3.069,5.488 C3.109,5.528 3.175,5.528 3.216,5.488 L3.448,5.256 L4.903,3.8 C4.943,3.76 4.943,3.694 4.903,3.653 L4.744,3.495 C4.703,3.455 4.638,3.455 4.597,3.495 L3.215,4.876 C3.175,4.917 3.109,4.917 3.069,4.876 L3.069,4.876 Z" id="Shape"></path>
                    <path d="M3.069,9.965 L2.451,9.348 C2.411,9.308 2.345,9.308 2.304,9.348 L2.145,9.507 C2.105,9.547 2.105,9.613 2.145,9.654 L2.81,10.319 L3.068,10.577 C3.108,10.617 3.174,10.617 3.215,10.577 L3.447,10.345 L4.902,8.89 C4.942,8.85 4.942,8.784 4.902,8.743 L4.743,8.584 C4.702,8.544 4.637,8.544 4.596,8.584 L3.214,9.966 C3.175,10.005 3.109,10.005 3.069,9.965 L3.069,9.965 Z" id="Shape"></path>
                </g>
            </g>
        </g>
    </g>
</svg>