<?xml version="1.0" encoding="UTF-8" standalone="no"?>
<svg width="64px" height="64px" viewBox="0 0 64 64" version="1.1" xmlns="http://www.w3.org/2000/svg" xmlns:xlink="http://www.w3.org/1999/xlink">
    <!-- Generator: Sketch 3.8.3 (29802) - http://www.bohemiancoding.com/sketch -->
    <title>选项设置-64px</title>
    <desc>Created with Sketch.</desc>
    <defs></defs>
    <g id="Page-1" stroke="none" stroke-width="1" fill="none" fill-rule="evenodd">
        <g id="选项设置-64px" fill="#B5B5B6">
            <g id="用户手册-深度商店64px-22" transform="translate(11.000000, 9.000000)">
                <g id="Group">
                    <path d="M39,0 L3,0 C1.343,0 0,1.343 0,3 L0,44 C0,45.657 1.343,47 3,47 L39,47 C40.657,47 42,45.657 42,44 L42,3 C42,1.343 40.657,0 39,0 Z M12,39 L5,39 L5,32 L12,32 L12,39 L12,39 Z M12,27 L5,27 L5,20 L12,20 L12,27 L12,27 Z M12,15 L5,15 L5,8 L12,8 L12,15 L12,15 Z M37,37 L16,37 L16,34 L37,34 L37,37 L37,37 Z M37,25 L16,25 L16,22 L37,22 L37,25 L37,25 Z M37,13 L16,13 L16,10 L37,10 L37,13 L37,13 Z" id="Shape"></path>
                    <path d="M7.41,12.178 L5.947,10.716 C5.851,10.62 5.696,10.62 5.6,10.716 L5.224,11.092 C5.128,11.188 5.128,11.343 5.224,11.439 L6.8,13.015 L7.411,13.626 C7.507,13.722 7.662,13.722 7.758,13.626 L8.308,13.076 L11.754,9.63 C11.85,9.534 11.85,9.379 11.754,9.283 L11.378,8.907 C11.282,8.811 11.127,8.811 11.031,8.907 L7.759,12.179 C7.661,12.273 7.506,12.273 7.41,12.178 L7.41,12.178 Z" id="Shape"></path>
                    <path d="M7.41,24.229 L5.947,22.767 C5.851,22.671 5.696,22.671 5.6,22.767 L5.224,23.143 C5.128,23.239 5.128,23.394 5.224,23.49 L6.8,25.066 L7.411,25.677 C7.507,25.773 7.662,25.773 7.758,25.677 L8.308,25.127 L11.754,21.681 C11.85,21.585 11.85,21.43 11.754,21.334 L11.378,20.958 C11.282,20.862 11.127,20.862 11.031,20.958 L7.759,24.23 C7.661,24.325 7.506,24.325 7.41,24.229 L7.41,24.229 Z" id="Shape"></path>
                </g>
            </g>
        </g>
    </g>
</svg>